<svg xmlns="http://www.w3.org/2000/svg" width="1732" height="858" viewBox="0 0 1732 858">
  <defs>
    <style>
      .cls-1 {
        fill: #ff4e2b;
      }

      .cls-2 {
        fill: #fff;
      }

      .cls-2, .cls-3 {
        fill-rule: evenodd;
      }
    </style>
  </defs>
  <rect id="Retângulo_1" data-name="Retângulo 1" class="cls-1" x="150" y="49" width="760" height="760"/>
  <path id="Study" class="cls-2" d="M470.787,534.022c24.221,0,44.466-12.653,44.466-37.959,0-27.836-24.583-34.344-42.659-40.67-10.484-3.8-17.895-7.411-17.895-15,0-5.242,4.158-9.761,13.2-9.761,8.314,0,13.014,3.073,14.46,9.761,0.542,2.892,1.988,4.338,4.7,4.338h19.883c2.892,0,4.7-1.627,4.519-4.7-2.169-26.21-22.414-37.6-43.562-37.6-21.51,0-42.117,12.653-42.117,37.959,0,27.656,22.595,35.067,40.49,41.213,11.026,3.8,20.064,7.049,20.064,14.46,0,5.242-3.8,9.761-15.545,9.761-10.665,0-16.088-3.254-17.534-9.761-0.542-2.892-1.988-4.338-4.7-4.338H428.67c-2.892,0-4.7,1.627-4.518,4.7C426.321,522.634,447.108,534.022,470.787,534.022ZM572.2,441.113h-9.942v-24.4c0-2.892-1.627-4.519-4.519-4.519H539.661c-2.893,0-4.519,1.627-4.519,4.519v24.4H525.2c-2.892,0-4.519,1.627-4.519,4.519v16.991c0,2.892,1.627,4.519,4.519,4.519h9.942v59.831c0,2.892,1.626,4.518,4.519,4.518h18.075c2.892,0,4.519-1.626,4.519-4.518V467.142H572.2c2.892,0,4.519-1.627,4.519-4.519V445.632C576.716,442.74,575.089,441.113,572.2,441.113Zm89.838,0H643.959c-2.892,0-4.519,1.627-4.519,4.519v48.262c0,10.665-5.061,15.184-13.2,15.184-6.869,0-12.111-3.977-12.111-13.015V445.632c0-2.892-1.627-4.519-4.519-4.519H591.54c-2.893,0-4.519,1.627-4.519,4.519v52.781c0,22.6,12.11,35.609,28.921,35.609,11.555,0,19.25-4.5,23.5-10.786v3.737c0,2.892,1.627,4.518,4.519,4.518h18.076c2.892,0,4.519-1.626,4.519-4.518V445.632C666.554,442.74,664.927,441.113,662.035,441.113Zm112.613-36.151H756.572c-2.892,0-4.519,1.627-4.519,4.519v40.073c-6.043-6.89-14.836-10.971-26.931-10.971-23.679,0-43.2,20.787-43.2,47.719s19.522,47.72,43.2,47.72c12.1,0,20.888-4.081,26.931-10.972v3.923c0,2.892,1.627,4.518,4.519,4.518h18.076c2.892,0,4.519-1.626,4.519-4.518V409.481C779.167,406.589,777.54,404.962,774.648,404.962ZM730.543,508.355c-12.472,0-21.51-8.5-21.51-22.053s9.038-22.052,21.51-22.052,21.51,8.5,21.51,22.052S743.015,508.355,730.543,508.355Zm120.748-63.446-14.823,47.72-17.171-47.9a5.049,5.049,0,0,0-5.062-3.615H794.714c-3.254,0-4.7,2.169-3.615,5.242l31.813,83.69-10.846,32.537c-1.084,3.253.543,5.061,3.8,5.061h19.522c2.531,0,4.519-1.085,5.242-3.615l39.043-117.854c1.085-3.253-.542-5.061-3.8-5.061H856.352A4.873,4.873,0,0,0,851.291,444.909Z"/>
  <path id="Net" class="cls-2" d="M548.989,577.834V687.022l-71.5-111.881a10.392,10.392,0,0,0-9.274-4.786H445.783c-4.786,0-7.478,2.692-7.478,7.479V772.279c0,4.787,2.692,7.479,7.478,7.479H478.69c4.786,0,7.478-2.692,7.478-7.479V663.091l71.5,111.881a10.392,10.392,0,0,0,9.274,4.786h22.436c4.786,0,7.479-2.692,7.479-7.479V577.834c0-4.787-2.693-7.479-7.479-7.479H556.468C551.681,570.355,548.989,573.047,548.989,577.834ZM703.948,626c-47.265,0-80.171,34.4-80.171,78.975s31.71,78.975,81.368,78.975c30.513,0,55.043-13.462,66.71-39.487,2.393-4.787-.6-8.376-5.983-8.376l-28.718.3c-3.889,0-6.282,1.5-9.274,3.889-5.384,4.487-13.761,7.478-22.137,7.478-15.588,0-29.546-7.057-34.982-24.829h99.9c4.487,0,7.479-2.094,8.077-6.88,0.3-3.59.6-7.18,0.6-11.069C779.334,659.8,747.624,626,703.948,626Zm-33.375,62.821c4.621-14.918,16.258-23.034,33.076-23.034,13.2,0,26.391,6.013,31.016,23.034H670.573ZM875.96,630.184H859.507V589.8c0-4.787-2.692-7.479-7.479-7.479H822.114c-4.787,0-7.479,2.692-7.479,7.479v40.384H798.182c-4.787,0-7.479,2.693-7.479,7.479v28.12c0,4.786,2.692,7.479,7.479,7.479h16.453v99.017c0,4.787,2.692,7.479,7.479,7.479h29.914c4.787,0,7.479-2.692,7.479-7.479V673.262H875.96c4.786,0,7.479-2.693,7.479-7.479v-28.12C883.439,632.877,880.746,630.184,875.96,630.184Z"/>
  <path id="Work" class="cls-3" d="M1176.83,582.007h-33c-4.23,0-6.77,2.263-7.62,6.224l-32.72,132.391-32.72-132.391c-0.85-3.961-3.39-6.224-7.62-6.224h-27.36c-5.08,0-7.33,2.829-5.92,7.921l8.93,32.583-26.14,98.111L979.939,588.231c-0.846-3.961-3.385-6.224-7.616-6.224h-33c-5.077,0-7.334,2.829-5.923,7.921l50.492,184.16c1.128,4.243,3.949,5.94,7.9,5.94h36.1c3.95,0,6.77-1.7,7.9-5.94l22.3-81.206,22.27,81.206c1.13,4.243,3.95,5.94,7.9,5.94h36.1c3.95,0,6.77-1.7,7.9-5.94l50.49-184.16C1184.16,584.836,1181.91,582.007,1176.83,582.007Zm80.11,201.982c41.47,0,74.76-32.532,74.76-74.682s-33.29-74.683-74.76-74.683-74.75,32.532-74.75,74.683S1215.48,783.989,1256.94,783.989Zm0-41.3c-18.33,0-32.43-13.295-32.43-33.38s14.1-33.381,32.43-33.381,32.44,13.3,32.44,33.381S1275.28,742.687,1256.94,742.687Zm170.38-106.365c-14.01,2.107-25.13,10.421-29.33,24.622v-15.29c0-4.526-2.54-7.072-7.06-7.072h-28.2c-4.52,0-7.06,2.546-7.06,7.072v127.3c0,4.527,2.54,7.073,7.06,7.073h28.2c4.52,0,7.06-2.546,7.06-7.073V713.264c0-22.631,15.23-30.552,31.02-29.986,3.67,0,5.65-2.263,5.65-6.789V643.108c0-4.526-2.54-7.638-7.34-6.789v0Zm152.04,135.22-43.72-62.235,41.46-62.236c3.11-4.809,1.13-8.486-4.51-8.486h-32.44a9.319,9.319,0,0,0-8.46,4.526l-36.39,56.928V589.079c0-4.526-2.54-7.072-7.05-7.072h-28.21c-4.51,0-7.05,2.546-7.05,7.072V772.956c0,4.526,2.54,7.072,7.05,7.072h28.21c4.51,0,7.05-2.546,7.05-7.072V717.994l39.21,57.508a9.319,9.319,0,0,0,8.46,4.526h32.16C1580.77,780.028,1582.75,776.351,1579.36,771.542Z"/>
</svg>
